<svg viewBox="0 0 64 64" xmlns="http://www.w3.org/2000/svg" xmlns:xlink="http://www.w3.org/1999/xlink"><filter id="a"><feGaussianBlur result="result6" stdDeviation="1.5"/><feComposite in="SourceGraphic" in2="result6" operator="atop" result="result8"/><feComposite in="result8" in2="SourceAlpha" operator="atop" result="result9"/></filter><g stroke="#ada426"><path d="m6.8975 59.035v-11.25h-3.75l10-10 10 10h-3.75v11.25z" fill="#fc0" filter="url(#a)" stroke-width=".2605"/><path d="m9.3975 45.285h2.5v2.5h-2.5z" style="fill:#ff9;fill-rule:evenodd;stroke-linecap:round;stroke-linejoin:round;stroke-width:.2605;filter:url(#a)"/><path d="m13.772 45.285h2.5v2.5h-2.5z" style="fill:#ff9;fill-rule:evenodd;stroke-linecap:round;stroke-linejoin:round;stroke-width:.2605;filter:url(#a)"/><path d="m9.3975 49.035h2.5v2.5h-2.5z" style="fill:#ff9;fill-rule:evenodd;stroke-linecap:round;stroke-linejoin:round;stroke-width:.2605;filter:url(#a)"/><path d="m13.772 49.035h2.5v2.5h-2.5z" style="fill:#ff9;fill-rule:evenodd;stroke-linecap:round;stroke-linejoin:round;stroke-width:.2605;filter:url(#a)"/><path d="m11.35 53.494h3.797v5.5408h-3.797z" style="fill:#ff9;fill-rule:evenodd;stroke-linecap:round;stroke-linejoin:round;stroke-width:.2605;filter:url(#a)"/><path d="m5 342.36a10 10 0 1 1 -20 0 10 10 0 1 1 20 0z" style="fill:#ff9;fill-rule:evenodd;stroke-linecap:round;stroke-linejoin:round;stroke-width:2.084;filter:url(#a)" transform="matrix(.125 0 0 .125 13.772 -.01)"/></g><path d="m26.169 59.211v-22.5h-3.75l10-10 10 10h-3.75v22.5z" fill="#09f" filter="url(#a)" stroke="#3f7bcb" stroke-width=".2605"/><path d="m28.669 35.711h2.5v2.5h-2.5z" style="fill:#b4e2ff;fill-rule:evenodd;stroke:#3f7bcb;stroke-linecap:round;stroke-linejoin:round;stroke-width:.2605;filter:url(#a)"/><path d="m33.044 35.711h2.5v2.5h-2.5z" style="fill:#b4e2ff;fill-rule:evenodd;stroke:#3f7bcb;stroke-linecap:round;stroke-linejoin:round;stroke-width:.2605;filter:url(#a)"/><path d="m28.669 39.461h2.5v2.5h-2.5z" style="fill:#b4e2ff;fill-rule:evenodd;stroke:#3f7bcb;stroke-linecap:round;stroke-linejoin:round;stroke-width:.2605;filter:url(#a)"/><path d="m33.044 39.461h2.5v2.5h-2.5z" style="fill:#b4e2ff;fill-rule:evenodd;stroke:#3f7bcb;stroke-linecap:round;stroke-linejoin:round;stroke-width:.2605;filter:url(#a)"/><path d="m30.128 49.188h4.2728v9.9802h-4.2728z" style="fill:#9cf;fill-rule:evenodd;stroke:#3f7bcb;stroke-linecap:round;stroke-linejoin:round;stroke-width:.2605;filter:url(#a)"/><path d="m5 342.36a10 10 0 1 1 -20 0 10 10 0 1 1 20 0z" style="fill:#b4e2ff;fill-rule:evenodd;stroke:#3f7bcb;stroke-linecap:round;stroke-linejoin:round;stroke-width:2.084;filter:url(#a)" transform="matrix(.125 0 0 .125 33.044 -11.084)"/><path d="m45.015 59.398v-42.278h-3.75l10-10 10 10h-3.75l-.18659 42.652-12.313-.37318z" fill="#6c3" filter="url(#a)" stroke="#46cb60" stroke-width=".2605"/><path d="m47.701 22.463h2.5v2.5h-2.5z" style="fill:#9f6;fill-rule:evenodd;stroke:#4b9742;stroke-linecap:round;stroke-linejoin:round;stroke-width:.2605;filter:url(#a)"/><path d="m52.076 22.463h2.5v2.5h-2.5z" style="fill:#9f6;fill-rule:evenodd;stroke:#4b9742;stroke-linecap:round;stroke-linejoin:round;stroke-width:.2605;filter:url(#a)"/><path d="m47.701 26.213h2.5v2.5h-2.5z" style="fill:#9f6;fill-rule:evenodd;stroke:#4b9742;stroke-linecap:round;stroke-linejoin:round;stroke-width:.2605;filter:url(#a)"/><path d="m52.076 26.213h2.5v2.5h-2.5z" style="fill:#9f6;fill-rule:evenodd;stroke:#4b9742;stroke-linecap:round;stroke-linejoin:round;stroke-width:.2605;filter:url(#a)"/><path d="m48.986 45.655h4.2489v13.688h-4.2489z" style="fill:#9f6;fill-rule:evenodd;stroke:#4b9742;stroke-linecap:round;stroke-linejoin:round;stroke-width:.2605;filter:url(#a)"/><path d="m5 342.36a10 10 0 1 1 -20 0 10 10 0 1 1 20 0z" style="fill:#9f6;fill-rule:evenodd;stroke:#4b9742;stroke-linecap:round;stroke-linejoin:round;stroke-width:2.084;filter:url(#a)" transform="matrix(.125 0 0 .125 51.89 -30.676)"/></svg>