<svg height="480pt" viewBox="0 -8 480 480" width="480pt" xmlns="http://www.w3.org/2000/svg"><path d="m72 224h288v64l-8 8h-216zm0 0" fill="#d12136"/><path d="m8 288 64-64 64 64h6.910156l1.089844 176h-136zm0 0" fill="#f6e8c7"/><path d="m136 288h224v176h-224zm0 0" fill="#e5d1b5"/><path d="m40 304h40v48h-40zm0 0" fill="#4db5ff"/><path d="m72 304h32v48h-32zm0 0" fill="#3596d8"/><path d="m232 464v-48c0-17.671875-14.328125-32-32-32s-32 14.328125-32 32v48zm0 0" fill="#bf5b00"/><path d="m40 384h40v48h-40zm0 0" fill="#4db5ff"/><path d="m72 384h32v48h-32zm0 0" fill="#3596d8"/><path d="m168 320h40v32h-40zm0 0" fill="#4db5ff"/><path d="m200 320h32v32h-32zm0 0" fill="#3596d8"/><path d="m296 192h32v48h-32zm0 0" fill="#a30c25"/><path d="m264 320h40v32h-40zm0 0" fill="#4db5ff"/><path d="m296 320h32v32h-32zm0 0" fill="#3596d8"/><path d="m264 384h40v48h-40zm0 0" fill="#4db5ff"/><path d="m200 384c-17.671875 0-32 14.328125-32 32v48h32zm0 0" fill="#e38100"/><path d="m120 0h352v160h-352zm0 0" fill="#2cb357"/><path d="m424 32h-256c0 8.835938-7.164062 16-16 16v64c8.835938 0 16 7.164062 16 16h256c0-8.835938 7.164062-16 16-16v-64c-8.835938 0-16-7.164062-16-16zm0 0" fill="#1f9342"/><path d="m328 80c0-26.507812-14.328125-48-32-48s-32 21.492188-32 48 14.328125 48 32 48 32-21.492188 32-48zm0 0" fill="#2cb357"/><path d="m232 80c0 8.835938-7.164062 16-16 16s-16-7.164062-16-16 7.164062-16 16-16 16 7.164062 16 16zm0 0" fill="#ffbc05"/><path d="m392 80c0 8.835938-7.164062 16-16 16s-16-7.164062-16-16 7.164062-16 16-16 16 7.164062 16 16zm0 0" fill="#ffbc05"/><path d="m69.65625 90.34375-11.3125 11.3125 10.34375 10.34375h-60.6875c-4.417969 0-8 3.582031-8 8v96h16v-88h52.6875l-10.34375 10.34375 11.3125 11.3125 24-24c3.121094-3.125 3.121094-8.1875 0-11.3125zm0 0" fill="#354468"/><path d="m464 200v88h-52.6875l10.34375-10.34375-11.3125-11.3125-24 24c-3.121094 3.125-3.121094 8.1875 0 11.3125l24 24 11.3125-11.3125-10.34375-10.34375h60.6875c4.417969 0 8-3.582031 8-8v-96zm0 0" fill="#354468"/><path d="m296 384h32v48h-32zm0 0" fill="#3596d8"/></svg>