<?xml version="1.0" standalone="no"?>
<!DOCTYPE svg PUBLIC "-//W3C//DTD SVG 20010904//EN"
 "http://www.w3.org/TR/2001/REC-SVG-20010904/DTD/svg10.dtd">
<svg version="1.0" xmlns="http://www.w3.org/2000/svg"
 width="1102.000000pt" height="1102.000000pt" viewBox="0 0 1102.000000 1102.000000"
 preserveAspectRatio="xMidYMid meet">
<metadata>
Created by potrace 1.11, written by Peter Selinger 2001-2013
</metadata>
<g transform="translate(0.000000,1102.000000) scale(0.100000,-0.100000)"
fill="#000000" stroke="none">
<path d="M7498 9459 c-2 -8 -4 -1476 -4 -3264 l1 -3250 90 -56 c220 -137 557
-288 810 -362 28 -8 60 -18 71 -21 l21 -7 1 1628 c1 896 1 1638 1 1650 1 15
151 172 496 517 l495 495 0 353 0 353 -989 989 c-591 591 -990 983 -993 975z"/>
<path d="M3302 7724 c-271 -48 -501 -214 -631 -455 -130 -241 -140 -539 -27
-784 116 -252 339 -438 594 -496 26 -6 56 -13 67 -16 36 -8 225 -10 268 -2 23
4 56 9 72 12 50 8 175 55 234 88 412 232 574 736 374 1159 -46 98 -81 148
-165 235 -110 117 -274 215 -401 240 -10 3 -27 7 -37 10 -68 22 -250 26 -348
9z"/>
<path d="M5612 7698 c-7 -7 -12 -17 -12 -22 0 -33 -290 -606 -395 -781 -121
-202 -316 -490 -380 -561 -5 -7 -39 -47 -75 -90 -95 -116 -301 -319 -410 -406
-329 -263 -662 -409 -1055 -462 -92 -13 -427 -15 -495 -3 -14 2 -52 8 -85 12
-49 6 -146 24 -268 50 -10 2 -52 13 -94 25 -41 11 -77 19 -79 17 -4 -4 77
-243 95 -282 6 -11 33 -76 61 -145 156 -378 373 -755 634 -1103 70 -95 131
-174 135 -177 3 -3 31 -34 61 -70 97 -115 132 -152 305 -325 181 -181 231
-225 414 -374 690 -558 1547 -975 2511 -1221 325 -83 774 -163 1095 -195 195
-19 245 -23 400 -31 263 -14 825 -8 1005 11 19 2 71 6 115 10 44 3 94 8 110
10 17 2 53 7 80 10 60 7 74 9 240 34 167 25 171 26 312 57 65 14 127 28 139
30 176 34 542 148 777 243 122 49 224 97 182 87 -19 -5 -170 -28 -265 -41 -25
-3 -56 -8 -70 -10 -28 -6 -71 -10 -180 -20 -41 -4 -83 -9 -92 -11 -100 -18
-773 -26 -978 -11 -784 56 -1474 276 -2055 654 -92 60 -211 145 -260 184 -583
476 -982 1035 -1199 1683 -48 143 -120 402 -142 511 -2 11 -6 31 -9 45 -13 60
-52 273 -60 325 -16 106 -34 246 -40 303 -4 35 -8 71 -10 81 -2 9 -6 60 -10
112 -3 52 -8 108 -10 124 -23 189 -23 925 0 1135 2 19 6 75 10 125 4 49 9 99
10 110 2 11 8 61 14 110 16 134 22 176 31 218 9 41 9 42 -8 25z"/>
<path d="M6457 6950 l-528 -529 6 -128 c10 -225 15 -317 20 -363 3 -25 12
-112 20 -195 17 -157 20 -185 35 -275 5 -30 12 -71 15 -90 5 -32 17 -98 31
-175 40 -224 190 -743 225 -779 5 -6 9 -16 9 -24 0 -26 142 -305 212 -417 92
-145 272 -392 318 -435 3 -3 43 -47 89 -98 46 -51 86 -90 89 -87 9 9 5 4119
-4 4122 -5 1 -247 -236 -537 -527z"/>
<path d="M9751 4703 c0 -1828 3 -2362 12 -2365 19 -7 383 6 482 17 22 2 72 7
110 10 39 4 86 8 105 11 63 7 124 15 150 19 14 2 61 9 105 15 44 7 87 14 96
15 9 2 34 6 55 9 22 3 53 9 69 13 17 3 39 7 50 9 11 1 23 3 26 3 3 1 5 752 5
1670 l0 1670 -632 632 -633 633 0 -2361z"/>
<path d="M870 5674 c-160 -34 -319 -155 -388 -296 -18 -37 -35 -76 -37 -87 -2
-10 -8 -36 -14 -56 -11 -39 -9 -198 3 -248 48 -207 240 -389 447 -423 194 -31
368 24 506 161 170 169 212 417 108 640 -70 151 -225 276 -386 311 -55 12
-178 11 -239 -2z"/>
<path d="M17 4602 c67 -160 207 -405 341 -595 154 -220 432 -528 634 -704 46
-39 92 -80 103 -90 11 -10 54 -45 95 -78 41 -33 77 -63 80 -66 13 -14 217
-162 325 -235 535 -361 1140 -649 1808 -860 449 -143 1057 -270 1477 -309 36
-3 81 -8 100 -10 19 -2 69 -6 110 -9 41 -4 100 -9 130 -11 30 -3 136 -7 235
-10 l180 -4 -160 65 c-88 36 -167 67 -175 71 -8 3 -33 13 -55 23 -22 9 -69 30
-105 46 -269 118 -689 347 -940 514 -184 122 -471 338 -610 459 -136 119 -196
176 -330 310 -86 86 -188 192 -227 236 -282 317 -554 706 -755 1080 -20 39
-41 69 -45 68 -4 -1 -75 -22 -158 -48 -82 -25 -181 -53 -220 -61 -104 -23
-146 -31 -235 -44 -36 -5 -83 -12 -105 -15 -22 -4 -132 -8 -245 -10 -292 -4
-534 30 -791 111 -107 34 -298 111 -343 138 -11 7 -47 27 -78 44 l-57 31 16
-37z"/>
</g>
</svg>
